<svg xmlns="http://www.w3.org/2000/svg" viewBox="0 0 48 48" width="48" height="48">
  <path fill="#EA4335" d="M24 9.5c3.54 0 6 1.54 7.38 2.83l5.4-5.26C33.66 4.04 29.24 2 24 2 14.82 2 7.24 7.98 4.32 16.02l6.68 5.19C12.46 15.16 17.74 9.5 24 9.5z"/>
  <path fill="#4285F4" d="M46.5 24.5c0-1.64-.15-3.22-.44-4.75H24v9h12.72c-.55 2.86-2.2 5.28-4.72 6.92l7.33 5.69C43.95 37.54 46.5 31.6 46.5 24.5z"/>
  <path fill="#FBBC05" d="M10.99 28.81A14.5 14.5 0 0 1 10 24c0-1.66.28-3.27.78-4.78l-6.68-5.2A23.94 23.94 0 0 0 2 24c0 3.83.9 7.45 2.5 10.67l6.49-5.86z"/>
  <path fill="#34A853" d="M24 46c6.24 0 11.49-2.06 15.32-5.61l-7.33-5.69C30.38 36.62 27.49 37.5 24 37.5c-6.26 0-11.54-5.66-12.99-13.31l-6.69 5.2C7.24 40.02 14.82 46 24 46z"/>
</svg>
